<?xml version="1.0" encoding="UTF-8"?>
<svg version="1.1" xmlns="http://www.w3.org/2000/svg" width="250" height="250">
<path d="M0 0 C21.82017856 16.24674397 34.31137459 37.42850959 39.078125 64.09765625 C39.37693542 66.26403179 39.53774958 68.37744605 39.625 70.5625 C39.66496094 71.531875 39.70492187 72.50125 39.74609375 73.5 C40.29371185 100.30107394 30.74985216 123.5673108 12.54833984 143.02270508 C-4.26940995 160.45115528 -26.98815508 170.3828363 -51.25366211 170.85522461 C-78.60343295 171.0395744 -101.73654893 162.50146627 -121.62109375 143.34765625 C-139.27796129 125.4904271 -148.50874326 102.03759831 -148.75 77.0625 C-148.56220043 57.62133171 -142.95666298 39.85529417 -132.375 23.5625 C-131.88515625 22.80582031 -131.3953125 22.04914063 -130.890625 21.26953125 C-129.79093678 19.64910831 -128.59411107 18.09509678 -127.375 16.5625 C-126.715 16.5625 -126.055 16.5625 -125.375 16.5625 C-125.11332031 15.97855469 -124.85164063 15.39460938 -124.58203125 14.79296875 C-117.17070416 1.09760381 -97.96005391 -8.23732618 -83.72363281 -12.57910156 C-54.3719416 -21.192776 -25.33329153 -16.98079106 0 0 Z " fill="#013077" transform="translate(177.375,44.4375)"/>
<path d="M0 0 C0 0.99 0 1.98 0 3 C-3 5 -3 5 -5.625 4.8125 C-8.33540731 4.15999454 -10.86878945 3.39921842 -13.5 2.5 C-26.30263125 -1.86695409 -38.86583041 -0.42813481 -51.125 5.125 C-62.56862667 11.25157184 -71.85677739 21.66992888 -76 34 C-79.58658786 48.08143303 -78.17474529 60.85454616 -72 74 C-71.34 74.99 -70.68 75.98 -70 77 C-65.22979089 76.25465483 -61.75989046 74.78495892 -57 73 C-56.67 54.85 -56.34 36.7 -56 18 C-42 18 -42 18 -38.7890625 20.32421875 C-37.71785156 21.98904297 -37.71785156 21.98904297 -36.625 23.6875 C-35.75592628 24.95971561 -34.88468148 26.23044978 -34.01171875 27.5 C-33.54685059 28.20769531 -33.08198242 28.91539063 -32.60302734 29.64453125 C-29.42581768 34.31308422 -25.89055686 38.72157207 -22.4375 43.1875 C-21.05862733 44.99152771 -19.68215799 46.79739599 -18.30859375 48.60546875 C-17.71876709 49.38043701 -17.12894043 50.15540527 -16.52124023 50.95385742 C-15.29747959 52.5998754 -14.13773936 54.29339095 -13 56 C-13.00636475 54.77893555 -13.01272949 53.55787109 -13.01928711 52.29980469 C-13.03372324 47.7669148 -13.0023972 43.23529295 -12.95727539 38.70263672 C-12.94414005 36.74141758 -12.94339743 34.78007453 -12.95532227 32.81884766 C-12.97032035 29.99777991 -12.94068107 27.18016005 -12.90234375 24.359375 C-12.91659897 23.48319519 -12.93085419 22.60701538 -12.94554138 21.70428467 C-12.88803995 19.28366912 -12.75630146 17.30097825 -12 15 C-9.45688145 13.05020918 -7.87298641 12.1112975 -5 11 C-3.83944092 10.45633789 -2.67888184 9.91267578 -1.4831543 9.35253906 C-0.27570557 8.82885742 0.93174316 8.30517578 2.17578125 7.765625 C2.82701462 7.48273621 3.47824799 7.19984741 4.1492157 6.90838623 C5.51048323 6.31828595 6.87262069 5.73018865 8.2355957 5.14404297 C10.32695358 4.24377818 12.41456652 3.33521037 14.50195312 2.42578125 C15.83051531 1.85106789 17.15928401 1.2768316 18.48828125 0.703125 C20.29099487 -0.07562988 20.29099487 -0.07562988 22.13012695 -0.87011719 C25 -2 25 -2 27 -2 C24.24489796 9.35102041 24.24489796 9.35102041 22.75 13.3125 C21.33589853 18.37969693 22.59804509 22.46128223 24.9375 27 C25.44603516 27.8971875 25.44603516 27.8971875 25.96484375 28.8125 C29.31707949 35.89646986 29.33537579 42.58505946 29.3125 50.3125 C29.32861328 51.38951172 29.34472656 52.46652344 29.36132812 53.57617188 C29.37077965 69.18064422 23.05997052 81.48746351 12.375 92.75 C0.87969647 103.64028755 -14.24084527 109.71758993 -30.140625 109.3125 C-41.05263062 108.11993108 -50.72179472 104.89716437 -60 99 C-60 96 -60 96 -58.3125 94.1875 C-56 93 -56 93 -53.8125 93.5625 C-52.884375 94.036875 -51.95625 94.51125 -51 95 C-37.55764968 101.70759703 -24.30095489 102.67880952 -10 98 C4.1295499 91.37195659 14.02250295 81.86349193 19.4375 67.0625 C23.51035413 52.20543646 22.08124479 37.79831844 14.5546875 24.43359375 C13.42933971 22.5848081 12.22468188 20.78453645 11 19 C9.906875 19.495 8.81375 19.99 7.6875 20.5 C4 22 4 22 1 22 C1 41.47 1 60.94 1 81 C-12 81 -12 81 -15.75 77.75 C-16.86689102 76.19015706 -17.94796091 74.60429714 -19 73 C-20.34663503 71.20266561 -21.70149354 69.41147648 -23.0625 67.625 C-23.805 66.62210937 -24.5475 65.61921875 -25.3125 64.5859375 C-28.66065182 60.08783634 -32.11525715 55.67230399 -35.5625 51.25 C-36.19486572 50.43869629 -36.82723145 49.62739258 -37.47875977 48.79150391 C-38.98501915 46.86035964 -40.49204554 44.92982076 -42 43 C-41.98839844 44.12494873 -41.97679687 45.24989746 -41.96484375 46.40893555 C-41.93224693 50.59341021 -41.95218746 54.77628892 -41.98779297 58.96069336 C-41.99589088 60.76960508 -41.98984687 62.57863873 -41.96923828 64.38745117 C-41.94203016 66.9929866 -41.966119 69.59384824 -42 72.19921875 C-41.97087524 73.40731453 -41.97087524 73.40731453 -41.94116211 74.63981628 C-42.02683447 77.99501332 -42.11113835 80.14106423 -44.59442139 82.54074097 C-46.67388425 83.8837654 -48.75212948 84.96541963 -51 86 C-52.18754883 86.57588867 -53.37509766 87.15177734 -54.59863281 87.74511719 C-55.78811523 88.25719727 -56.97759766 88.76927734 -58.203125 89.296875 C-58.84820007 89.57597717 -59.49327515 89.85507935 -60.15789795 90.14263916 C-61.50433231 90.72365801 -62.85210468 91.30158563 -64.20117188 91.87646484 C-66.26238616 92.75528094 -68.31891516 93.64441417 -70.375 94.53515625 C-81.29212851 99.23372181 -81.29212851 99.23372181 -85 100 C-84.37798054 97.45757096 -83.75248241 94.91608125 -83.125 92.375 C-82.95097656 91.66214844 -82.77695313 90.94929688 -82.59765625 90.21484375 C-82.42363281 89.51230469 -82.24960938 88.80976563 -82.0703125 88.0859375 C-81.89822266 87.38831299 -81.72613281 86.69068848 -81.54882812 85.97192383 C-81 84 -81 84 -79.7265625 80.84765625 C-78.77394398 77.11400625 -79.60584802 75.4998617 -81.25 72.0625 C-87.45069208 58.84248515 -88.165873 44.70083024 -83.19140625 30.88671875 C-82.79824219 29.93410156 -82.40507813 28.98148438 -82 28 C-81.63777344 27.11957031 -81.27554688 26.23914063 -80.90234375 25.33203125 C-74.5560985 11.45634247 -63.79499851 1.91025505 -49.8125 -3.96875 C-32.51397302 -10.31154323 -16.08721948 -9.1875091 0 0 Z " fill="#FAFCFD" transform="translate(151,70)"/>
<path d="M0 0 C18.92196857 0.90104612 36.72791147 8.67660048 51 21 C51.7115625 21.56847656 52.423125 22.13695313 53.15625 22.72265625 C71.34037366 37.80139259 81.55925149 59.55457333 84.75 82.6875 C84.86147588 84.1230918 84.94254924 85.56123313 85 87 C85.05994141 88.4540625 85.05994141 88.4540625 85.12109375 89.9375 C85.4640956 106.72441416 81.88608393 123.12237301 74 138 C72.35 137.67 70.7 137.34 69 137 C70.38748417 132.74898468 71.78849697 128.53335547 73.4375 124.375 C82.34715099 100.15781034 80.37832586 76.56450438 70 53 C66.46828203 46.09752708 61.92014423 39.96675385 57 34 C56.4328125 33.29746094 55.865625 32.59492187 55.28125 31.87109375 C51.76360572 27.65791526 48.11937617 24.34891249 43.6015625 21.2265625 C42 20 42 20 41 18 C39.38952809 17.28042745 37.77355739 16.57145408 36.13671875 15.9140625 C33.80668103 14.91730048 31.61228958 13.75231469 29.375 12.5625 C24.50595081 10.09846602 19.5699573 8.50410468 14.33984375 6.98046875 C9.17855375 5.46528303 4.09404531 3.72555048 -1 2 C-0.67 1.34 -0.34 0.68 0 0 Z " fill="#03409E" transform="translate(132,28)"/>
<path d="M0 0 C0.66 0.33 1.32 0.66 2 1 C-0.99485947 4.09146784 -4.08264649 6.91291833 -7.375 9.6875 C-12.18171291 13.95395427 -15.61335692 18.56176023 -19 24 C-19.67160156 25.06347656 -20.34320313 26.12695312 -21.03515625 27.22265625 C-26.0684872 35.44865781 -29.44231426 43.69121352 -32 53 C-32.18473877 53.65355469 -32.36947754 54.30710938 -32.55981445 54.98046875 C-38.59435686 78.5678345 -33.43289108 103.07313837 -21.62890625 123.79296875 C-18.38276635 129.18005227 -14.56969269 133.66418922 -10 138 C-8.31119651 139.64934546 -6.64271906 141.30429001 -5 143 C-5 143.66 -5 144.32 -5 145 C-4.16662109 145.38865234 -4.16662109 145.38865234 -3.31640625 145.78515625 C-0.70157047 147.15651194 1.64536355 148.74222331 4.0625 150.4375 C5.34833984 151.33275391 5.34833984 151.33275391 6.66015625 152.24609375 C8.64570572 153.73442716 10.39550281 155.11142789 12 157 C12 157.66 12 158.32 12 159 C-6.09895264 152.34879479 -20.59226073 134.77600559 -29 118 C-39.96475579 93.9338324 -41.33416022 67.65215797 -32.25 42.75 C-29.5526498 35.73467645 -26.09636431 29.30725252 -22 23 C-21.51015625 22.24332031 -21.0203125 21.48664063 -20.515625 20.70703125 C-19.41593678 19.08660831 -18.21911107 17.53259678 -17 16 C-16.34 16 -15.68 16 -15 16 C-14.74863281 15.4225 -14.49726562 14.845 -14.23828125 14.25 C-11.07962211 8.51060673 -5.17638472 3.88228854 0 0 Z " fill="#012662" transform="translate(67,45)"/>
<path d="M0 0 C0.99 0.66 1.98 1.32 3 2 C-3.4744653 19.86059393 -22.06421243 34.93788025 -38.828125 42.87890625 C-46.67215362 46.34136837 -54.47982246 48.16666054 -63 49 C-63 48.34 -63 47.68 -63 47 C-60.36 47 -57.72 47 -55 47 C-55 46.34 -55 45.68 -55 45 C-56.98 44.67 -58.96 44.34 -61 44 C-61 43.67 -61 43.34 -61 43 C-60.15179688 42.79246094 -59.30359375 42.58492187 -58.4296875 42.37109375 C-46.43625949 39.22117145 -35.80055973 34.3582977 -25.671875 27.06640625 C-24 26 -24 26 -22 26 C-22 25.34 -22 24.68 -22 24 C-20.53125 22.625 -20.53125 22.625 -18.5 21 C-12.57831971 15.97077153 -7.84656107 9.94183113 -3.625 3.4375 C-2 1 -2 1 0 0 Z " fill="#013383" transform="translate(202,164)"/>
<path d="M0 0 C19.04651696 0.906977 36.55218689 8.75865207 51 21 C51.59554687 21.42925781 52.19109375 21.85851562 52.8046875 22.30078125 C56.99260198 25.37659403 57.70730744 28.10623529 59 33 C60.91764174 34.3762794 60.91764174 34.3762794 63 35 C65.21548976 37.21548976 65.97912233 39.34767251 67.15234375 42.20703125 C68.37602358 44.79536785 70.18345443 46.79812658 72 49 C74.93835737 53.66680289 76.61784249 57.68400959 78 63 C78.33 63.33 78.66 63.66 79 64 C79.04063832 65.66617115 79.042721 67.33388095 79 69 C78.34 69 77.68 69 77 69 C76.56429687 67.96101563 76.12859375 66.92203125 75.6796875 65.8515625 C70.70762891 54.14275824 65.13005966 43.85948024 57 34 C56.4328125 33.29746094 55.865625 32.59492187 55.28125 31.87109375 C51.76360572 27.65791526 48.11937617 24.34891249 43.6015625 21.2265625 C42 20 42 20 41 18 C39.38952809 17.28042745 37.77355739 16.57145408 36.13671875 15.9140625 C33.80668103 14.91730048 31.61228958 13.75231469 29.375 12.5625 C24.50595081 10.09846602 19.5699573 8.50410468 14.33984375 6.98046875 C9.17855375 5.46528303 4.09404531 3.72555048 -1 2 C-0.67 1.34 -0.34 0.68 0 0 Z " fill="#05439F" transform="translate(132,28)"/>
<path d="M0 0 C0.66 0.33 1.32 0.66 2 1 C-0.99485947 4.09146784 -4.08264649 6.91291833 -7.375 9.6875 C-12.18171291 13.95395427 -15.61335692 18.56176023 -19 24 C-19.67160156 25.06347656 -20.34320313 26.12695312 -21.03515625 27.22265625 C-29.77533308 41.50677722 -34.09408662 56.84978934 -34.625 73.5625 C-34.68300781 75.07553711 -34.68300781 75.07553711 -34.7421875 76.61914062 C-34.83546203 79.0792564 -34.92125516 81.53938366 -35 84 C-35.99 84 -36.98 84 -38 84 C-38.74884907 61.58999833 -34.31945324 41.96850394 -22 23 C-21.51015625 22.24332031 -21.0203125 21.48664063 -20.515625 20.70703125 C-19.41593678 19.08660831 -18.21911107 17.53259678 -17 16 C-16.34 16 -15.68 16 -15 16 C-14.74863281 15.4225 -14.49726562 14.845 -14.23828125 14.25 C-11.07962211 8.51060673 -5.17638472 3.88228854 0 0 Z " fill="#002B6F" transform="translate(67,45)"/>
<path d="M0 0 C18.96035987 0.90287428 36.67103984 8.70097586 51 21 C52.18724437 21.9794766 53.37471593 22.95867794 54.5625 23.9375 C55.366875 24.618125 56.17125 25.29875 57 26 C56.01 26.33 55.02 26.66 54 27 C51.9140625 25.70703125 51.9140625 25.70703125 49.625 23.8125 C48.82191406 23.16152344 48.01882812 22.51054688 47.19140625 21.83984375 C45.63546887 20.53352199 44.09386822 19.21003896 42.5625 17.875 C38.64675072 15.0098176 34.39174974 13.03684215 30 11 C29.03320312 10.53980469 28.06640625 10.07960938 27.0703125 9.60546875 C21.10507417 6.91723797 16.08490597 5.55867474 9.55859375 5.24609375 C5.68541142 4.87355866 2.55420808 3.54239219 -1 2 C-0.67 1.34 -0.34 0.68 0 0 Z " fill="#0643A1" transform="translate(132,28)"/>
<path d="M0 0 C1.02158203 0.00322266 2.04316406 0.00644531 3.09570312 0.00976562 C4.15080078 0.01814453 5.20589844 0.02652344 6.29296875 0.03515625 C7.36740234 0.03966797 8.44183594 0.04417969 9.54882812 0.04882812 C12.19276558 0.06057896 14.83658827 0.07700838 17.48046875 0.09765625 C17.97546875 1.58265625 17.97546875 1.58265625 18.48046875 3.09765625 C17.6805249 3.13205811 16.88058105 3.16645996 16.05639648 3.2019043 C-3.84297541 3.86763421 -3.84297541 3.86763421 -22.8671875 9.171875 C-25.66059684 10.14689417 -26.81107109 10.16934912 -29.51953125 9.09765625 C-26.83199351 5.06634963 -23.65760441 4.67732267 -19.20703125 3.47265625 C-18.44712891 3.25609375 -17.68722656 3.03953125 -16.90429688 2.81640625 C-11.21935254 1.21612652 -5.94383034 -0.03320576 0 0 Z " fill="#013D9A" transform="translate(114.51953125,27.90234375)"/>
<path d="M0 0 C1.69481648 1.64345841 3.34988392 3.31228634 5 5 C5.51949219 5.50015625 6.03898438 6.0003125 6.57421875 6.515625 C20.81170102 21.25092134 26.23610114 42.20220976 28 62 C27.34 61.67 26.68 61.34 26 61 C25.69140625 59.1796875 25.69140625 59.1796875 25.5625 56.875 C25.17595209 52.42618498 23.78957774 49.10111565 22 45 C21.76719162 43.59007059 21.57994932 42.17190326 21.4375 40.75 C21.27940342 36.92668171 21.27940342 36.92668171 19 34 C18.731875 33.13375 18.46375 32.2675 18.1875 31.375 C15.87699125 24.80829091 12.3455854 19.39451981 8 14 C7.690625 13.175 7.38125 12.35 7.0625 11.5 C6.08388861 8.76426454 6.08388861 8.76426454 3.4375 6.4375 C1.11136345 4.11136345 0.35323233 3.17909094 0 0 Z " fill="#3B70C2" transform="translate(189,55)"/>
<path d="M0 0 C0.99 0.66 1.98 1.32 3 2 C1.57161648 6.06312203 -0.39647042 9.21901829 -2.9375 12.6875 C-3.62714844 13.64011719 -4.31679687 14.59273437 -5.02734375 15.57421875 C-7 18 -7 18 -10 20 C-11.32 20 -12.64 20 -14 20 C-13.47754947 15.98061389 -12.47423197 13.98051271 -9.6875 11.0625 C-7.46142878 8.65396393 -5.44562078 6.33287213 -3.6875 3.5625 C-2 1 -2 1 0 0 Z " fill="#033A90" transform="translate(202,164)"/>
<path d="M0 0 C0.33 0 0.66 0 1 0 C1.06058594 0.63808594 1.12117187 1.27617188 1.18359375 1.93359375 C1.26738281 2.75988281 1.35117188 3.58617188 1.4375 4.4375 C1.51871094 5.26121094 1.59992188 6.08492188 1.68359375 6.93359375 C1.78930815 8.98662025 1.78930815 8.98662025 3 10 C3.94261072 21.28940744 2.55478279 34.5467735 -2 45 C-2.99 45.495 -2.99 45.495 -4 46 C-4.29167472 41.62487917 -3.8751381 38.33545332 -2.53125 34.15625 C-0.58353288 27.24044285 -0.44219265 20.46041777 -0.3125 13.3125 C-0.27833984 12.02666016 -0.24417969 10.74082031 -0.20898438 9.41601562 C-0.12731117 6.27743111 -0.05790041 3.13909769 0 0 Z " fill="#1F509E" transform="translate(214,107)"/>
<path d="M0 0 C3.78786597 0.5260925 6.17152224 1.38103911 9 4 C9 4.66 9 5.32 9 6 C9.55558594 6.25910156 10.11117187 6.51820313 10.68359375 6.78515625 C13.29842953 8.15651194 15.64536355 9.74222331 18.0625 11.4375 C19.34833984 12.33275391 19.34833984 12.33275391 20.66015625 13.24609375 C22.64570572 14.73442716 24.39550281 16.11142789 26 18 C26 18.66 26 19.32 26 20 C15.86320656 16.27481796 7.57142205 8.51384469 0 1 C0 0.67 0 0.34 0 0 Z " fill="#012258" transform="translate(53,184)"/>
<path d="M0 0 C10.08310984 2.94714041 18.4433211 9.88783163 26 17 C25.01 17.33 24.02 17.66 23 18 C20.9140625 16.70703125 20.9140625 16.70703125 18.625 14.8125 C17.82320312 14.16152344 17.02140625 13.51054688 16.1953125 12.83984375 C14.62530661 11.5240559 13.06080738 10.20168628 11.5 8.875 C7.89505751 6.17129313 3.97295004 4.11198216 0 2 C0 1.34 0 0.68 0 0 Z " fill="#1856B3" transform="translate(163,37)"/>
<path d="M0 0 C0.66 0 1.32 0 2 0 C1.54554036 1.41791408 1.08625056 2.83428046 0.625 4.25 C0.36976563 5.03890625 0.11453125 5.8278125 -0.1484375 6.640625 C-0.95173667 8.86627958 -1.89711662 10.90931672 -3 13 C-4.65 12.67 -6.3 12.34 -8 12 C-6.74772034 6.99088137 -5.16160983 4.98782244 -1 2 C-0.67 1.34 -0.34 0.68 0 0 Z " fill="#06409A" transform="translate(209,153)"/>
<path d="M0 0 C0.33 0 0.66 0 1 0 C1.35621515 6.4118727 0.53060222 12.04495899 -2 18 C-2.66 18.33 -3.32 18.66 -4 19 C-4.42446917 12.63296252 -3.01472942 7.03374925 -1 1 C-0.67 0.67 -0.34 0.34 0 0 Z " fill="#144AA1" transform="translate(214,134)"/>
<path d="M0 0 C1.69525215 1.64388088 3.35520462 3.30622808 5 5 C5.61230469 5.62777344 6.22460938 6.25554688 6.85546875 6.90234375 C10.47419193 10.78967318 12.86084157 13.43366275 13 19 C9.50451898 15.78047801 7.73961 13.349025 6 9 C5.154375 8.154375 4.30875 7.30875 3.4375 6.4375 C1.11136345 4.11136345 0.35323233 3.17909094 0 0 Z " fill="#306CC6" transform="translate(189,55)"/>
<path d="M0 0 C5.23175837 -0.38281159 8.37802694 0.78145293 13 3 C13 3.33 13 3.66 13 4 C14.65 4.33 16.3 4.66 18 5 C18 5.66 18 6.32 18 7 C11.30965634 6.55397709 5.97187878 3.92654458 0 1 C0 0.67 0 0.34 0 0 Z " fill="#01183F" transform="translate(79,204)"/>
<path d="M0 0 C0.99 0.66 1.98 1.32 3 2 C1.6302836 5.99500618 -0.25722422 8.80009492 -3 12 C-3.36923077 4.61538462 -3.36923077 4.61538462 -1.5 1.5 C-1.005 1.005 -0.51 0.51 0 0 Z " fill="#073784" transform="translate(202,164)"/>
<path d="M0 0 C1.875 0.125 1.875 0.125 4 1 C4.67939174 2.99571323 5.34561559 4.99594773 6 7 C7.96672915 8.1500831 7.96672915 8.1500831 10 9 C11.25 11.125 11.25 11.125 12 13 C11.278125 12.401875 10.55625 11.80375 9.8125 11.1875 C7.1044026 8.98038319 7.1044026 8.98038319 4.3125 7.4375 C2 6 2 6 0 3 C0 2.01 0 1.02 0 0 Z " fill="#0D4BA8" transform="translate(185,54)"/>
<path d="M0 0 C3.26008643 3.16952847 6.22237877 6.39937989 9 10 C8.01 10.495 8.01 10.495 7 11 C0.13785558 5.9059081 0.13785558 5.9059081 -0.4375 2.125 C-0.2209375 1.073125 -0.2209375 1.073125 0 0 Z " fill="#012867" transform="translate(48,174)"/>
<path d="M0 0 C5.27749285 0.53851968 9.25645564 1.77343836 14 4 C13.67 4.99 13.34 5.98 13 7 C11.01755108 6.21658881 9.03911141 5.42302514 7.0625 4.625 C5.96035156 4.18414062 4.85820312 3.74328125 3.72265625 3.2890625 C1 2 1 2 0 0 Z " fill="#0F4EAA" transform="translate(149,32)"/>
<path d="M0 0 C4.97515959 1.95452698 7.20389473 5.6274047 9.8125 10.125 C11 13 11 13 10 16 C9.61328125 15.34773438 9.2265625 14.69546875 8.828125 14.0234375 C5.99393085 9.26704237 3.12668157 4.56976538 0 0 Z " fill="#023F9D" transform="translate(190,62)"/>
<path d="M0 0 C0.99 0.495 0.99 0.495 2 1 C2.70491267 3.32206525 3.37212429 5.65593068 4 8 C4.33 8.33 4.66 8.66 5 9 C5.04063832 10.66617115 5.042721 12.33388095 5 14 C4.34 14 3.68 14 3 14 C0.56574762 9.03006806 -0.34615998 5.65394631 0 0 Z " fill="#0B49A8" transform="translate(206,83)"/>
<path d="M0 0 C0.33 0 0.66 0 1 0 C1.2253459 3.30507324 1.34500438 5.39213514 -0.3125 8.3125 C-2 10 -2 10 -5 11 C-3.80065338 7.91596583 -2.52022974 4.93911083 -1 2 C-0.67 1.34 -0.34 0.68 0 0 Z " fill="#04409E" transform="translate(209,147)"/>
<path d="M0 0 C1.29608947 0.93137592 2.58671632 1.8703566 3.875 2.8125 C4.59429687 3.33457031 5.31359375 3.85664062 6.0546875 4.39453125 C8 6 8 6 10 9 C7.33289346 8.84759391 5.5494129 8.50635081 3.5546875 6.66796875 C0 2.49375 0 2.49375 0 0 Z " fill="#2861B9" transform="translate(179,46)"/>
<path d="M0 0 C0.33 0 0.66 0 1 0 C1.1953125 6.0546875 1.1953125 6.0546875 1 8 C0.34 8.66 -0.32 9.32 -1 10 C-1.33 9.67 -1.66 9.34 -2 9 C-1.9140625 7.1875 -1.9140625 7.1875 -1.625 5 C-1.53476563 4.278125 -1.44453125 3.55625 -1.3515625 2.8125 C-1 1 -1 1 0 0 Z " fill="#174FAA" transform="translate(214,134)"/>
<path d="M0 0 C2.375 0.25 2.375 0.25 5 1 C6.375 2.9375 6.375 2.9375 7 5 C6.67 5.66 6.34 6.32 6 7 C4.02 4.69 2.04 2.38 0 0 Z " fill="#021C46" transform="translate(53,184)"/>
<path d="M0 0 C0.66 0 1.32 0 2 0 C1.01 2.97 0.02 5.94 -1 9 C-1.66 7.68 -2.32 6.36 -3 5 C-1.75 2.25 -1.75 2.25 0 0 Z " fill="#113C86" transform="translate(209,153)"/>
<path d="M0 0 C0.99 0.495 0.99 0.495 2 1 C2 1.99 2 2.98 2 4 C2.66 4 3.32 4 4 4 C4 6.31 4 8.62 4 11 C1.6870518 8.6870518 1.50419025 7.52095125 0.875 4.375 C0.70742187 3.55773437 0.53984375 2.74046875 0.3671875 1.8984375 C0.24601563 1.27195312 0.12484375 0.64546875 0 0 Z " fill="#003C97" transform="translate(207,93)"/>
<path d="M0 0 C1.32 0.33 2.64 0.66 4 1 C4.33 2.98 4.66 4.96 5 7 C3.29115995 5.37660195 1.62553283 3.70680947 0 2 C0 1.34 0 0.68 0 0 Z " fill="#215FBC" transform="translate(197,67)"/>
</svg>
